<svg xmlns="http://www.w3.org/2000/svg" width="316.22776601683796" height="316.22776601683796" viewBox="0 0 2947 2947">
  <defs>
    <style>
      .red {fill:#e60811}
      .orange {fill:#ed7309}
      .yellow {fill:#ebb608}
      .green {fill:#00a262}
    </style>
  </defs>

  <path class="green" d="M75 2525h159v159H75z"/>
  <path class="orange" d="M263 2525h159v159H263z"/>
  <path class="red" d="M263 2713h159v159H263z"/>
  <path class="yellow" d="M75 2713h159v159H75z"/>

  <path class="green" d="M2525 75h159v159h-159z"/>
  <path class="orange" d="M2713 75h159v159h-159z"/>
  <path class="red" d="M2713 263h159v159h-159z"/>
  <path class="yellow" d="M2525 263h159v159h-159z"/>

  <path class="green" d="M75 75h159v159H75z"/>
  <path class="orange" d="M263 75h159v159H263z"/>
  <path class="red" d="M263 263h159v159H263z"/>
  <path class="yellow" d="M75 263h159v159H75z"/>

  <path class="green" d="M2525 2525h159v159h-159z"/>
  <path class="orange" d="M2713 2525h159v159h-159z"/>
  <path class="red" d="M2713 2713h159v159h-159z"/>
  <path class="yellow" d="M2525 2713h159v159h-159z"/>

  <path class="green" d="M835 307c7-10 12-20 15-29 3-10 4-19 4-30a98 98 0 0 0-194-15h-71a176 176 0 0 1 54-111 169 169 0 0 1 179-30 174 174 0 0 1 90 90 162 162 0 0 1 11 95c-2 9-4 19-8 30h-80Zm91 109H793a515 515 0 0 1-86-9c-11-3-21-7-31-13a187 187 0 0 1-66-65c-9-17-16-36-19-58h71c5 14 10 25 17 34 6 10 14 17 25 24a89 89 0 0 0 37 15l27 3h158v69Zm95-330v182l2 32c1 9 4 17 7 23 4 6 8 12 14 16s13 8 22 11v73a153 153 0 0 1-82-44c-12-14-21-29-26-45s-8-36-8-60V86h71Zm200 0v188c0 24-2 44-7 60a140 140 0 0 1-109 89v-73c9-3 16-6 22-11 6-4 10-9 14-16 4-6 6-13 7-21 2-8 2-19 2-34V86h71Zm97 105 39 77-76 148h-79l116-225Zm131 170h-99l35-69h28l-74-144 40-76 178 344h-80l-28-55Zm54-275h222v69h-222V86Zm76 110h71v220h-71V196Zm170-110h71v330h-71V86Zm111 130h23l18-1c4 0 8-1 11-3a28 28 0 0 0 18-26c0-5-2-9-4-14-2-4-5-7-9-10-3-2-7-4-12-4l-19-2h-26V86h22a282 282 0 0 1 50 6c7 2 13 4 18 8l16 11a103 103 0 0 1 34 75 100 100 0 0 1-70 95c-11 4-26 5-43 5h-27v-70Zm27 99a151 151 0 0 0 70-15l41 116h-75l-36-101Zm123-83a171 171 0 0 1 57-110 173 173 0 0 1 288 110h-72c-6-26-19-46-37-61a99 99 0 0 0-64-22 101 101 0 0 0-100 83h-72Zm72 40a104 104 0 0 0 65 76c11 4 23 6 35 6 25 0 46-7 64-22 18-14 31-35 37-60h72a179 179 0 0 1-58 110 170 170 0 0 1-114 43 170 170 0 0 1-116-44 177 177 0 0 1-57-109h72Z"/>
  <path class="red" d="M2112 2640c-7 10-12 20-15 29s-5 19-5 30a98 98 0 0 0 195 15h71a176 176 0 0 1-54 111 169 169 0 0 1-179 30 174 174 0 0 1-90-90 162 162 0 0 1-11-95c1-9 4-19 8-30h80Zm-91-109h133a515 515 0 0 1 86 9c11 3 21 7 31 13a187 187 0 0 1 66 65c9 17 16 36 19 58h-71c-5-14-10-25-17-34-6-10-15-17-25-24a89 89 0 0 0-37-15l-28-3h-157v-69Zm-95 330v-182l-2-32c-2-9-4-17-7-23-4-6-9-12-14-16-6-4-13-8-22-11v-73a153 153 0 0 1 82 44c12 14 21 29 26 45s8 36 8 60v188h-71Zm-201 0v-188c0-24 3-44 8-60 6-16 14-31 26-44a140 140 0 0 1 83-45v73c-9 3-16 6-22 11-6 4-11 9-14 16-4 6-6 13-8 21l-2 34v182h-71Zm-96-105-39-77 76-148h79l-116 225Zm-131-170h99l-35 69h-28l74 144-40 76-178-344h80l28 55Zm-54 275h-223v-69h223v69Zm-76-110h-71v-220h71v220Zm-170 110h-71v-330h71v330Zm-111-130h-23l-18 1-12 3a28 28 0 0 0-17 26c0 5 1 9 4 14 2 4 5 7 9 10 3 2 7 4 12 4l19 2h26v70h-22a282 282 0 0 1-50-6c-7-2-13-4-18-8l-16-11a103 103 0 0 1-34-75 100 100 0 0 1 70-95c11-4 25-5 43-5h27v70Zm-27-99a146 146 0 0 0-70 15l-41-116h75l36 101Zm-123 83a171 171 0 0 1-57 110 173 173 0 0 1-288-110h72a101 101 0 0 0 101 83 101 101 0 0 0 100-83h72Zm-72-40a104 104 0 0 0-65-76c-11-4-23-6-35-6-25 0-46 7-64 22-19 14-31 35-37 60h-72a179 179 0 0 1 58-110 170 170 0 0 1 114-43 170 170 0 0 1 116 44 177 177 0 0 1 57 109h-72Z"/>
  <path class="yellow" d="M307 2112c-10-7-20-12-29-15a98 98 0 1 0-45 190v71a176 176 0 0 1-111-54 169 169 0 0 1-30-179 174 174 0 0 1 89-90 162 162 0 0 1 96-11c9 2 19 4 30 8v80Zm109-91v133a515 515 0 0 1-9 86c-3 11-7 21-13 31a187 187 0 0 1-66 66c-16 9-36 16-57 19v-71c14-5 25-10 34-17 9-6 17-15 24-25a89 89 0 0 0 15-37l2-27 1-38v-120h69Zm-330-95h182l32-2c9-2 17-4 23-7 6-4 12-8 16-14s8-13 11-22h73a153 153 0 0 1-44 82c-14 12-29 21-45 26s-36 8-60 8H86v-71Zm0-200h188c24 0 44 2 60 7a140 140 0 0 1 89 109h-73c-3-9-6-16-11-22-4-6-9-10-16-14-6-4-13-6-21-8l-34-1H86v-71Zm105-97 77-39 148 76v79l-225-116Zm170-131v99l-69-35v-28l-144 74-77-40 345-178v80l-55 28Zm-275-54v-223h69v223H86Zm110-76v-71h220v71H196ZM86 1198v-71h330v71H86Zm130-111v-23l-1-18c0-4-1-8-3-11a28 28 0 0 0-26-18c-5 0-9 1-14 4-4 2-7 5-10 9-2 3-4 7-4 12l-2 19v26H86v-22a282 282 0 0 1 6-50c2-7 4-13 8-18l11-16a103 103 0 0 1 75-34 100 100 0 0 1 95 70c3 11 5 25 5 43v27h-70Zm99-27c0-15-2-28-4-39s-6-21-11-31l116-41v75l-101 36Zm-83-123a171 171 0 0 1-110-57 173 173 0 0 1 110-288v72c-26 6-46 19-61 37a99 99 0 0 0-22 64 101 101 0 0 0 83 100v72Zm40-72a104 104 0 0 0 76-65c4-11 6-23 6-35 0-25-7-46-22-64s-35-31-60-37v-72a179 179 0 0 1 110 58 170 170 0 0 1 43 114 170 170 0 0 1-44 116 177 177 0 0 1-109 57v-72Z"/>
  <path class="orange" d="M2640 835c10 7 20 12 29 15s19 5 30 5a98 98 0 0 0 15-195v-71a176 176 0 0 1 111 54 169 169 0 0 1 30 179 174 174 0 0 1-90 90 162 162 0 0 1-95 11c-9-2-19-4-30-8v-80Zm-109 91V793a515 515 0 0 1 8-86 187 187 0 0 1 79-97c17-9 36-16 58-19v71c-14 5-25 10-34 17-10 6-18 15-24 25a89 89 0 0 0-15 37l-3 27v158h-69Zm330 95h-182l-32 2c-9 2-17 4-23 7-6 4-12 8-16 14s-8 13-11 22h-73a153 153 0 0 1 44-82c14-12 29-21 45-26s36-8 60-8h188v71Zm0 200h-188c-24 0-44-2-60-7a140 140 0 0 1-89-109h73c3 9 6 16 11 22 4 6 9 10 16 14 6 4 13 6 21 8l34 1h182v71Zm-105 97-77 39-148-76v-79l225 116Zm-170 131v-99l69 35v28l143-74 77 40-344 178v-80l55-28Zm275 54v223h-69v-223h69Zm-110 76v71h-220v-71h220Zm110 170v71h-330v-71h330Zm-130 111v23l1 18c0 4 1 8 3 11a28 28 0 0 0 26 18c5 0 9-1 14-4 4-2 7-5 10-9l4-12 2-19v-26h70v22a282 282 0 0 1-6 50c-2 7-4 13-8 18a103 103 0 0 1-86 50 100 100 0 0 1-96-70c-3-11-4-25-4-43v-27h70Zm-99 27a151 151 0 0 0 15 70l-116 41v-75l101-36Zm83 123a171 171 0 0 1 110 57 173 173 0 0 1-110 288v-72a103 103 0 0 0 82-101 101 101 0 0 0-82-100v-72Zm-40 72a104 104 0 0 0-76 65c-4 11-6 23-6 35a103 103 0 0 0 82 101v72a179 179 0 0 1-110-58 170 170 0 0 1-43-114 170 170 0 0 1 44-116 177 177 0 0 1 109-57v72Z"/>

  <path class="green" d="M1440 1011a468 468 0 0 0-271 107 464 464 0 0 0-155 285H680a828 828 0 0 1 256-521 795 795 0 0 1 504-205V501H500v940h940v-430Z"/>
  <path class="red" d="M2264 1504a784 784 0 0 1-48 247h-376a487 487 0 0 0 90-247h-427v432l23 2c48 2 108 3 177 3h564v325h-627c-49 0-94-1-137-3v181h940v-940h-179Z"/>
  <path class="yellow" d="M1413 2257c-65-7-124-17-176-33-53-15-101-36-145-61a877 877 0 0 1-312-310c-44-79-74-170-91-272h337c21 65 47 119 77 163a532 532 0 0 0 200 154 420 420 0 0 0 137 33v-427H500v940h940v-185l-27-2Z"/>
  <path class="orange" d="M1895 1292c19 47 31 97 34 149h-426v-429a442 442 0 0 1 293 133c42 42 75 91 99 147Zm-392-791v176c97 4 189 25 274 62a819 819 0 0 1 425 422c38 88 59 181 62 280h179V501h-940Z"/>
</svg>