<?xml version="1.0" encoding="UTF-8"?>
<svg id="Layer_2" data-name="Layer 2" xmlns="http://www.w3.org/2000/svg" viewBox="0 0 75.5 98.22">
  <defs>
    <style>
      .cls-1 {
        isolation: isolate;
      }
    </style>
  </defs>
  <g id="Layer_2-2" data-name="Layer 2">
    <g id="Layer_1-2" data-name="Layer 1-2">
      <g class="cls-1">
        <g class="cls-1">
          <path d="M0,55.66c0-.93.16-1.83.5-2.66.34-.83.79-1.59,1.39-2.22.6-.65,1.29-1.15,2.06-1.51s1.63-.54,2.52-.54,1.71.18,2.5.54,1.49.87,2.08,1.51c.6.65,1.07,1.39,1.41,2.22.34.83.52,1.73.52,2.68s-.18,1.85-.52,2.68c-.34.83-.81,1.57-1.41,2.2s-1.29,1.13-2.06,1.49c-.79.36-1.63.54-2.52.54s-1.75-.18-2.52-.54c-.77-.36-1.47-.83-2.06-1.47-.6-.63-1.07-1.37-1.39-2.2-.34-.83-.5-1.75-.5-2.74h0v.02ZM1.77,55.68c0,.69.12,1.37.36,1.98s.58,1.17,1.01,1.65.95.85,1.51,1.11c.58.28,1.19.4,1.85.4s1.29-.14,1.85-.4c.58-.28,1.07-.63,1.49-1.09.44-.46.77-1.01,1.01-1.63.24-.63.38-1.29.38-2s-.12-1.39-.38-2c-.24-.63-.58-1.17-1.01-1.65-.44-.48-.93-.83-1.51-1.11-.58-.28-1.19-.4-1.85-.4s-1.29.14-1.87.42c-.58.28-1.09.65-1.51,1.13-.44.48-.75,1.03-.99,1.65-.24.62-.36,1.29-.36,1.98v-.04h.02,0ZM9.17,60.68h4.37v1.77h-6.65s2.28-1.77,2.28-1.77Z"/>
          <path d="M17.92,57.64c0,.62.14,1.17.42,1.65s.63.85,1.11,1.13c.46.28.97.42,1.53.42s1.13-.14,1.61-.42.83-.65,1.09-1.13c.26-.48.4-1.03.4-1.65v-8.77h1.69v8.83c0,.99-.22,1.85-.63,2.6-.42.73-.99,1.31-1.73,1.71s-1.53.6-2.42.6-1.69-.2-2.4-.6c-.73-.4-1.31-.97-1.73-1.71s-.63-1.61-.63-2.6v-8.83h1.71v8.77h0Z"/>
          <path d="M27.96,62.44l5.54-14.15h.1l5.56,14.15h-1.94l-4.15-11.29,1.21-.85-4.62,12.14h-1.69ZM31.21,57.3h4.72l.56,1.59h-5.77l.5-1.59h0Z"/>
          <path d="M40.6,48.85h8.45v1.75h-3.41v11.85h-1.71v-11.85h-3.33v-1.75h0Z"/>
          <path d="M55.12,48.85c.63,0,1.23.1,1.79.28.54.18,1.01.46,1.43.81.4.36.71.79.95,1.33.24.54.34,1.13.34,1.81s-.08,1.07-.22,1.59-.38.97-.71,1.41c-.34.42-.77.75-1.31,1.01-.54.26-1.23.38-2.02.38h-1.89v5h-1.71v-13.59h3.37l-.02-.02h0ZM55.3,55.68c.5,0,.91-.08,1.25-.24.34-.16.6-.38.77-.63.18-.26.32-.54.4-.81.08-.3.12-.58.12-.85s-.04-.56-.14-.85c-.08-.3-.24-.56-.42-.81-.2-.26-.44-.48-.75-.63-.32-.16-.69-.24-1.13-.24h-1.96v5.08h1.87ZM57.38,56.73l3.31,5.71h-1.96l-3.39-5.66,2.04-.06Z"/>
          <path d="M62.52,55.66c0-.93.16-1.83.5-2.66.34-.83.79-1.59,1.39-2.22.6-.65,1.29-1.15,2.06-1.51s1.63-.54,2.52-.54,1.71.18,2.5.54,1.49.87,2.08,1.51c.6.65,1.07,1.39,1.41,2.22s.52,1.73.52,2.68-.18,1.85-.52,2.68-.81,1.57-1.41,2.2-1.29,1.13-2.06,1.49c-.79.36-1.63.54-2.52.54s-1.75-.18-2.52-.54c-.77-.36-1.47-.83-2.06-1.47-.6-.63-1.07-1.37-1.39-2.2-.34-.83-.5-1.75-.5-2.74h0v.02h0ZM64.29,55.66c0,.73.12,1.41.36,2.02.24.62.58,1.17,1.01,1.65s.95.85,1.51,1.11c.58.28,1.19.4,1.85.4s1.29-.14,1.85-.4c.58-.28,1.07-.63,1.49-1.11.44-.48.77-1.01,1.01-1.65.24-.63.38-1.29.38-2s-.12-1.41-.38-2.02c-.24-.63-.58-1.17-1.01-1.67-.44-.48-.93-.85-1.51-1.13-.58-.28-1.19-.4-1.85-.4s-1.29.14-1.87.42c-.58.28-1.09.65-1.51,1.13-.44.48-.75,1.03-.99,1.67-.24.63-.36,1.31-.36,2h.02v-.02Z"/>
        </g>
      </g>
      <rect x="40.52" y="64.29" width="25.3" height="33.93"/>
      <polygon points="65.82 4.68 50.32 26.73 65.82 26.73 65.82 4.68"/>
      <polygon points="65.82 0 33.37 0 .93 46.03 33.59 46.03 65.82 0"/>
    </g>
  </g>
</svg>