<?xml version="1.0" encoding="UTF-8"?>
<svg id="Layer_2" data-name="Layer 2" xmlns="http://www.w3.org/2000/svg" viewBox="0 0 380.5 495">
  <defs>
    <style>
      .cls-1 {
        isolation: isolate;
      }
    </style>
  </defs>
  <g id="Layer_1-2" data-name="Layer 1">
    <g class="cls-1">
      <g class="cls-1">
        <path d="M0,280.5c0-4.7.8-9.2,2.5-13.4,1.7-4.2,4-8,7-11.2,3-3.3,6.5-5.8,10.4-7.6,3.9-1.8,8.2-2.7,12.7-2.7s8.6.9,12.6,2.7c4,1.8,7.5,4.4,10.5,7.6,3,3.3,5.4,7,7.1,11.2,1.7,4.2,2.6,8.7,2.6,13.5s-.9,9.3-2.6,13.5c-1.7,4.2-4.1,7.9-7.1,11.1s-6.5,5.7-10.4,7.5c-4,1.8-8.2,2.7-12.7,2.7s-8.8-.9-12.7-2.7c-3.9-1.8-7.4-4.2-10.4-7.4-3-3.2-5.4-6.9-7-11.1C.8,290,0,285.4,0,280.4H0v.1ZM8.9,280.6c0,3.5.6,6.9,1.8,10,1.2,3.1,2.9,5.9,5.1,8.3s4.8,4.3,7.6,5.6c2.9,1.4,6,2,9.3,2s6.5-.7,9.3-2c2.9-1.4,5.4-3.2,7.5-5.5,2.2-2.3,3.9-5.1,5.1-8.2,1.2-3.2,1.9-6.5,1.9-10.1s-.6-7-1.9-10.1c-1.2-3.2-2.9-5.9-5.1-8.3-2.2-2.4-4.7-4.2-7.6-5.6-2.9-1.4-6-2-9.3-2s-6.5.7-9.4,2.1-5.5,3.3-7.6,5.7c-2.2,2.4-3.8,5.2-5,8.3-1.2,3.1-1.8,6.5-1.8,10v-.2h.1ZM46.2,305.8h22v8.9h-33.5l11.5-8.9Z"/>
        <path d="M90.3,290.5c0,3.1.7,5.9,2.1,8.3,1.4,2.4,3.2,4.3,5.6,5.7,2.3,1.4,4.9,2.1,7.7,2.1s5.7-.7,8.1-2.1c2.4-1.4,4.2-3.3,5.5-5.7,1.3-2.4,2-5.2,2-8.3v-44.2h8.5v44.5c0,5-1.1,9.3-3.2,13.1-2.1,3.7-5,6.6-8.7,8.6s-7.7,3-12.2,3-8.5-1-12.1-3c-3.7-2-6.6-4.9-8.7-8.6-2.1-3.7-3.2-8.1-3.2-13.1v-44.5h8.6v44.2h0Z"/>
        <path d="M140.9,314.7l27.9-71.3h.5l28,71.3h-9.8l-20.9-56.9,6.1-4.3-23.3,61.2h-8.5ZM157.3,288.8h23.8l2.8,8h-29.1l2.5-8h0Z"/>
        <path d="M204.6,246.2h42.6v8.8h-17.2v59.7h-8.6v-59.7h-16.8v-8.8Z"/>
        <path d="M277.8,246.2c3.2,0,6.2.5,9,1.4,2.7.9,5.1,2.3,7.2,4.1,2,1.8,3.6,4,4.8,6.7,1.2,2.7,1.7,5.7,1.7,9.1s-.4,5.4-1.1,8-1.9,4.9-3.6,7.1c-1.7,2.1-3.9,3.8-6.6,5.1-2.7,1.3-6.2,1.9-10.2,1.9h-9.5v25.2h-8.6v-68.5h17l-.1-.1ZM278.7,280.6c2.5,0,4.6-.4,6.3-1.2,1.7-.8,3-1.9,3.9-3.2.9-1.3,1.6-2.7,2-4.1.4-1.5.6-2.9.6-4.3s-.2-2.8-.7-4.3c-.4-1.5-1.2-2.8-2.1-4.1-1-1.3-2.2-2.4-3.8-3.2-1.6-.8-3.5-1.2-5.7-1.2h-9.9v25.6h9.4ZM289.2,285.9l16.7,28.8h-9.9l-17.1-28.5,10.3-.3Z"/>
        <path d="M315.1,280.5c0-4.7.8-9.2,2.5-13.4,1.7-4.2,4-8,7-11.2,3-3.3,6.5-5.8,10.4-7.6,3.9-1.8,8.2-2.7,12.7-2.7s8.6.9,12.6,2.7c4,1.8,7.5,4.4,10.5,7.6,3,3.3,5.4,7,7.1,11.2s2.6,8.7,2.6,13.5-.9,9.3-2.6,13.5-4.1,7.9-7.1,11.1-6.5,5.7-10.4,7.5c-4,1.8-8.2,2.7-12.7,2.7s-8.8-.9-12.7-2.7c-3.9-1.8-7.4-4.2-10.4-7.4-3-3.2-5.4-6.9-7-11.1-1.7-4.2-2.5-8.8-2.5-13.8h0v.1ZM324,280.5c0,3.7.6,7.1,1.8,10.2,1.2,3.1,2.9,5.9,5.1,8.3s4.8,4.3,7.6,5.6c2.9,1.4,6,2,9.3,2s6.5-.7,9.3-2c2.9-1.4,5.4-3.2,7.5-5.6,2.2-2.4,3.9-5.1,5.1-8.3,1.2-3.2,1.9-6.5,1.9-10.1s-.6-7.1-1.9-10.2c-1.2-3.2-2.9-5.9-5.1-8.4-2.2-2.4-4.7-4.3-7.6-5.7-2.9-1.4-6-2-9.3-2s-6.5.7-9.4,2.1-5.5,3.3-7.6,5.7c-2.2,2.4-3.8,5.2-5,8.4-1.2,3.2-1.8,6.6-1.8,10.1h.1v-.1Z"/>
      </g>
    </g>
    <rect x="204.2" y="324" width="127.5" height="171"/>
    <polygon points="331.7 23.6 253.6 134.7 331.7 134.7 331.7 23.6"/>
    <polygon points="331.7 0 168.2 0 4.7 232 169.3 232 331.7 0"/>
  </g>
</svg>