<?xml version="1.0" encoding="UTF-8" standalone="no"?>
<!-- Created with Inkscape (http://www.inkscape.org/) -->

<svg
   xmlns:dc="http://purl.org/dc/elements/1.1/"
   xmlns:cc="http://creativecommons.org/ns#"
   xmlns:rdf="http://www.w3.org/1999/02/22-rdf-syntax-ns#"
   xmlns:svg="http://www.w3.org/2000/svg"
   xmlns="http://www.w3.org/2000/svg"
   xmlns:sodipodi="http://sodipodi.sourceforge.net/DTD/sodipodi-0.dtd"
   xmlns:inkscape="http://www.inkscape.org/namespaces/inkscape"
   id="svg2985"
   version="1.1"
   inkscape:version="0.91 r13725"
   width="400.00006"
   height="123.20095"
   xml:space="preserve"
   sodipodi:docname="Sobeys_Logo_2003.svg"><metadata
     id="metadata2991"><rdf:RDF><cc:Work
         rdf:about=""><dc:format>image/svg+xml</dc:format><dc:type
           rdf:resource="http://purl.org/dc/dcmitype/StillImage" /><dc:title></dc:title></cc:Work></rdf:RDF></metadata><defs
     id="defs2989"><clipPath
       clipPathUnits="userSpaceOnUse"
       id="clipPath2999"><path
         d="M 0.059998,774 639,774 639,0.06 l -638.940002,0 0,773.94 z"
         id="path3001"
         inkscape:connector-curvature="0" /></clipPath><clipPath
       clipPathUnits="userSpaceOnUse"
       id="clipPath3009"><path
         d="m 639.81,-0.84601 -614.826,0 0,754.84801 614.826,0 0,-754.84801 M 395.398,560.394 153,522 181.998,338.895 424.404,377.28 395.398,560.394"
         id="path3011"
         inkscape:connector-curvature="0" /></clipPath><clipPath
       clipPathUnits="userSpaceOnUse"
       id="clipPath3015"><path
         d="m 24.984,754.002 614.016,0 0,-753.942 -614.016,0 0,753.942 z"
         id="path3017"
         inkscape:connector-curvature="0" /></clipPath><clipPath
       clipPathUnits="userSpaceOnUse"
       id="clipPath3027"><path
         d="m 152.89,522.134 4.884,-30.84 242.566,38.419 -4.885,30.839"
         id="path3029"
         inkscape:connector-curvature="0" /></clipPath><clipPath
       clipPathUnits="userSpaceOnUse"
       id="clipPath3033"><path
         d="M 181.998,338.895 153,522 395.398,560.394 424.404,377.28 181.998,338.895 m 213.435,221.103 -242.099,-38.286 28.934,-182.466 242.064,38.186 -28.899,182.566"
         id="path3035"
         inkscape:connector-curvature="0" /></clipPath><clipPath
       clipPathUnits="userSpaceOnUse"
       id="clipPath3039"><path
         d="M 117.036,535.454 428.4,584.766 461.277,377.198 149.914,327.879 117.036,535.454"
         id="path3041"
         inkscape:connector-curvature="0" /></clipPath><clipPath
       clipPathUnits="userSpaceOnUse"
       id="clipPath3045"><path
         d="M 153,522 181.998,338.895 424.404,377.28 395.398,560.394 153,522"
         id="path3047"
         inkscape:connector-curvature="0" /></clipPath><clipPath
       clipPathUnits="userSpaceOnUse"
       id="clipPath3057"><path
         d="m 157.728,491.591 24.211,-152.864 34.843,5.519 -24.212,152.863"
         id="path3059"
         inkscape:connector-curvature="0" /></clipPath><clipPath
       clipPathUnits="userSpaceOnUse"
       id="clipPath3063"><path
         d="M 181.998,338.895 153,522 395.398,560.394 424.404,377.28 181.998,338.895 m 213.435,221.103 -242.099,-38.286 28.934,-182.466 242.064,38.186 -28.899,182.566"
         id="path3065"
         inkscape:connector-curvature="0" /></clipPath><clipPath
       clipPathUnits="userSpaceOnUse"
       id="clipPath3069"><path
         d="M 117.036,535.454 428.4,584.766 461.277,377.198 149.914,327.879 117.036,535.454"
         id="path3071"
         inkscape:connector-curvature="0" /></clipPath><clipPath
       clipPathUnits="userSpaceOnUse"
       id="clipPath3075"><path
         d="M 153,522 181.998,338.895 424.404,377.28 395.398,560.394 153,522"
         id="path3077"
         inkscape:connector-curvature="0" /></clipPath><clipPath
       clipPathUnits="userSpaceOnUse"
       id="clipPath3087"><path
         d="m 211.601,375.038 4.884,-30.839 208.019,32.947 -4.884,30.839"
         id="path3089"
         inkscape:connector-curvature="0" /></clipPath><clipPath
       clipPathUnits="userSpaceOnUse"
       id="clipPath3093"><path
         d="M 181.998,338.895 153,522 395.398,560.394 424.404,377.28 181.998,338.895 m 213.435,221.103 -242.099,-38.286 28.934,-182.466 242.064,38.186 -28.899,182.566"
         id="path3095"
         inkscape:connector-curvature="0" /></clipPath><clipPath
       clipPathUnits="userSpaceOnUse"
       id="clipPath3099"><path
         d="M 117.036,535.454 428.4,584.766 461.277,377.198 149.914,327.879 117.036,535.454"
         id="path3101"
         inkscape:connector-curvature="0" /></clipPath><clipPath
       clipPathUnits="userSpaceOnUse"
       id="clipPath3105"><path
         d="M 153,522 181.998,338.895 424.404,377.28 395.398,560.394 153,522"
         id="path3107"
         inkscape:connector-curvature="0" /></clipPath><clipPath
       clipPathUnits="userSpaceOnUse"
       id="clipPath3117"><path
         d="m 153.085,521.861 19.327,-122.024 173.176,27.428 -19.327,122.024"
         id="path3119"
         inkscape:connector-curvature="0" /></clipPath><clipPath
       clipPathUnits="userSpaceOnUse"
       id="clipPath3123"><path
         d="M 182.268,339.246 153.334,521.712 395.433,559.998 424.332,377.432 182.268,339.246"
         id="path3125"
         inkscape:connector-curvature="0" /></clipPath><clipPath
       clipPathUnits="userSpaceOnUse"
       id="clipPath3129"><path
         d="M 117.036,535.454 428.4,584.766 461.277,377.198 149.914,327.879 117.036,535.454"
         id="path3131"
         inkscape:connector-curvature="0" /></clipPath><clipPath
       clipPathUnits="userSpaceOnUse"
       id="clipPath3135"><path
         d="M 153,522 181.998,338.895 424.404,377.28 395.398,560.394 153,522"
         id="path3137"
         inkscape:connector-curvature="0" /></clipPath><clipPath
       clipPathUnits="userSpaceOnUse"
       id="clipPath3147"><path
         d="m 325.965,549.242 28.978,-182.962 69.538,11.014 -28.979,182.962"
         id="path3149"
         inkscape:connector-curvature="0" /></clipPath><clipPath
       clipPathUnits="userSpaceOnUse"
       id="clipPath3153"><path
         d="M 182.268,339.246 153.334,521.712 395.433,559.998 424.332,377.432 182.268,339.246"
         id="path3155"
         inkscape:connector-curvature="0" /></clipPath><clipPath
       clipPathUnits="userSpaceOnUse"
       id="clipPath3159"><path
         d="M 117.036,535.454 428.4,584.766 461.277,377.198 149.914,327.879 117.036,535.454"
         id="path3161"
         inkscape:connector-curvature="0" /></clipPath><clipPath
       clipPathUnits="userSpaceOnUse"
       id="clipPath3165"><path
         d="M 153,522 181.998,338.895 424.404,377.28 395.398,560.394 153,522"
         id="path3167"
         inkscape:connector-curvature="0" /></clipPath><clipPath
       clipPathUnits="userSpaceOnUse"
       id="clipPath3177"><path
         d="m 172.365,400.133 9.699,-61.234 173.176,27.428 -9.699,61.235"
         id="path3179"
         inkscape:connector-curvature="0" /></clipPath><clipPath
       clipPathUnits="userSpaceOnUse"
       id="clipPath3183"><path
         d="M 182.268,339.246 153.334,521.712 395.433,559.998 424.332,377.432 182.268,339.246"
         id="path3185"
         inkscape:connector-curvature="0" /></clipPath><clipPath
       clipPathUnits="userSpaceOnUse"
       id="clipPath3189"><path
         d="M 117.036,535.454 428.4,584.766 461.277,377.198 149.914,327.879 117.036,535.454"
         id="path3191"
         inkscape:connector-curvature="0" /></clipPath><clipPath
       clipPathUnits="userSpaceOnUse"
       id="clipPath3195"><path
         d="M 153,522 181.998,338.895 424.404,377.28 395.398,560.394 153,522"
         id="path3197"
         inkscape:connector-curvature="0" /></clipPath><clipPath
       clipPathUnits="userSpaceOnUse"
       id="clipPath3209"><path
         d="m 442.722,718.605 0,-34.309 144.685,0 0,34.309"
         id="path3211"
         inkscape:connector-curvature="0" /></clipPath><clipPath
       clipPathUnits="userSpaceOnUse"
       id="clipPath3231"><path
         d="m 442.722,718.605 0,-34.309 144.685,0 0,34.309"
         id="path3233"
         inkscape:connector-curvature="0" /></clipPath><clipPath
       clipPathUnits="userSpaceOnUse"
       id="clipPath3245"><path
         d="m 442.722,718.605 0,-34.309 144.685,0 0,34.309"
         id="path3247"
         inkscape:connector-curvature="0" /></clipPath><clipPath
       clipPathUnits="userSpaceOnUse"
       id="clipPath3267"><path
         d="m 442.722,718.605 0,-34.309 144.685,0 0,34.309"
         id="path3269"
         inkscape:connector-curvature="0" /></clipPath><clipPath
       clipPathUnits="userSpaceOnUse"
       id="clipPath3283"><path
         d="m 442.722,718.605 0,-34.309 144.685,0 0,34.309"
         id="path3285"
         inkscape:connector-curvature="0" /></clipPath></defs><sodipodi:namedview
     pagecolor="#ffffff"
     bordercolor="#666666"
     borderopacity="1"
     objecttolerance="10"
     gridtolerance="10"
     guidetolerance="10"
     inkscape:pageopacity="0"
     inkscape:pageshadow="2"
     inkscape:window-width="1366"
     inkscape:window-height="706"
     id="namedview2987"
     showgrid="false"
     fit-margin-top="0"
     fit-margin-left="0"
     fit-margin-right="0"
     fit-margin-bottom="0"
     inkscape:zoom="3.0274996"
     inkscape:cx="200.00003"
     inkscape:cy="61.600479"
     inkscape:window-x="-8"
     inkscape:window-y="-8"
     inkscape:window-maximized="1"
     inkscape:current-layer="g2993"
     inkscape:snap-bbox="false"
     inkscape:bbox-nodes="false"
     showguides="true"
     inkscape:guide-bbox="true"
     inkscape:object-nodes="false"
     inkscape:snap-smooth-nodes="false"
     inkscape:snap-bbox-midpoints="false" /><g
     id="g2993"
     inkscape:groupmode="layer"
     inkscape:label="SobeysAR06_FinalRev"
     transform="matrix(1.25,0,0,-1.25,-553.4024,980.57712)"><path
       style="opacity:1;fill:#00853f;fill-opacity:1;stroke:none;stroke-width:3;stroke-linecap:square;stroke-linejoin:round;stroke-miterlimit:4;stroke-dasharray:none;stroke-opacity:1"
       d="m 523.53241,757.31478 a 28.460852,29.156394 0 0 1 -28.46145,-29.15604 28.460852,29.156394 0 0 1 28.46145,-29.15604 28.460852,29.156394 0 0 1 28.46144,29.15604 28.460852,29.156394 0 0 1 -28.46144,29.15604 z m 0,-17.03292 a 11.643904,12.122674 0 0 0 11.64417,-12.12312 11.643904,12.122674 0 0 0 -11.64417,-12.12312 11.643904,12.122674 0 0 0 -11.64417,12.12312 11.643904,12.122674 0 0 0 11.64417,12.12312 z"
       id="path4233"
       inkscape:connector-curvature="0" /><path
       d="m 728.93288,728.97314 c -1.00959,-5.41481 -6.60638,-12.65512 -16.16816,-12.69622 0,0 0.0177,-14.74181 0,-17.6532 16.84318,0.61633 28.37133,11.97424 30.93052,22.81857 1.41461,8.99241 4.81904,17.01926 17.28341,19.07368 1.1358,0.17315 1.74331,0.18782 1.74331,0.18782 l 0,18.03474 c 0,0 -0.43436,0.0821 -1.74624,-0.0322 -17.28048,-0.76013 -29.01406,-13.5532 -32.04284,-29.7331"
       style="fill:#00853f;fill-opacity:1;fill-rule:nonzero;stroke:none"
       id="path3257"
       inkscape:connector-curvature="0" /><path
       style="fill:#00853f;fill-opacity:1;fill-rule:nonzero;stroke:none"
       d="m 671.18486,757.31478 19.22242,-44.05543 -16.26577,-27.35841 19.17888,0 38.15248,71.41384 -17.57614,0 -13.37959,-25.51516 -10.97861,25.51516 -18.35367,0 z"
       id="path3259"
       inkscape:connector-curvature="0" /><path
       style="opacity:1;fill:#00853f;fill-opacity:1;stroke:none;stroke-width:3;stroke-linecap:square;stroke-linejoin:round;stroke-miterlimit:4;stroke-dasharray:none;stroke-opacity:1"
       d="m 646.06484,758.34659 c -0.85283,-0.0154 -1.7167,-0.0563 -2.60418,-0.15342 -4.82871,-0.5283 -8.82444,-1.84589 -12.13348,-3.65954 -4.09026,-2.35078 -7.56569,-5.67897 -10.1306,-9.7014 -0.13176,-0.2142 -0.26039,-0.42933 -0.38565,-0.64483 -0.14022,-0.24266 -0.27707,-0.48734 -0.41053,-0.73397 -1.91713,-3.51703 -3.00833,-7.13199 -3.5683,-10.24464 -0.24521,-1.54456 -0.37138,-3.10649 -0.37737,-4.67135 0.0119,-3.48083 0.61934,-6.93259 1.79349,-10.199 0.29054,-0.7884 0.59234,-1.57874 0.95791,-2.37612 0.0471,-0.10058 0.0949,-0.2007 0.14306,-0.30065 0.34062,-0.72374 0.70937,-1.44812 1.11549,-2.16668 0.24894,-0.44148 0.50889,-0.87634 0.7796,-1.30417 0.182,-0.28888 0.37457,-0.57471 0.5681,-0.86046 3.14954,-4.55655 7.48419,-8.11609 12.51084,-10.27365 3.33139,-1.3721 7.21101,-2.22159 11.70638,-2.32427 15.07741,0 25.64312,9.55954 28.79263,22.72491 l -15.38194,-5.3e-4 -1.20256,0 c 0,0 -1.95983,-3.90366 -5.85733,-5.73501 -5.89614,-2.77345 -11.61824,-0.55023 -12.20813,0.16587 -0.3786,0.27001 -0.14064,0.5295 0.056,0.6469 0.3199,0.17902 2.37818,1.39539 2.37818,1.39539 0,0 28.96792,17.5143 31.99276,19.34629 -3.49718,12.65034 -15.70214,20.83744 -28.53434,21.07033 z m -0.12858,-15.75569 c 2.66595,0.0422 5.20071,-0.65409 7.03501,-2.00706 -1.89006,-1.05655 -20.71111,-12.6933 -20.71111,-12.6933 -0.81588,4.49327 2.04115,9.67126 5.8594,12.27448 2.35524,1.6039 5.15075,2.38368 7.8167,2.42588 z"
       id="path4370"
       inkscape:connector-curvature="0"
       sodipodi:nodetypes="sccccccccccccccccccccccccscccsc" /><path
       d="m 468.88936,741.56663 c -2.4829,-14.61268 -13.27733,-24.54424 -26.16724,-23.66672 -0.003,-4.4111 0.0293,-15.89522 0,-20.83753 29.50711,-0.85991 42.78443,23.0152 45.17047,36.38643 2.38605,13.35363 9.83766,26.54877 28.55623,30.56072 1.01545,0.20544 2.84681,0.20544 2.84681,0.20544 l 0,20.2036 c 0,0 -0.65154,0.12327 -2.60322,-0.047 -24.40633,-2.1219 -43.82339,-19.37596 -47.80305,-42.80498"
       style="fill:#00853f;fill-opacity:1;fill-rule:nonzero;stroke:none"
       id="path3273"
       inkscape:connector-curvature="0" /><path
       inkscape:connector-curvature="0"
       style="opacity:1;fill:#00853f;fill-opacity:1;stroke:none;stroke-width:3;stroke-linecap:square;stroke-linejoin:round;stroke-miterlimit:4;stroke-dasharray:none;stroke-opacity:1"
       d="m 555.77018,777.05979 0,-48.85741 a 28.460852,29.156395 0 0 1 28.46146,-29.15603 28.460852,29.156395 0 0 1 28.46144,29.15603 28.460852,29.156395 0 0 1 -28.46144,29.15604 28.460852,29.156395 0 0 1 -11.70016,-2.60625 l 0,22.30762 -16.7613,0 z m 28.46146,-36.73428 a 11.643904,12.122674 0 0 0 11.64417,-12.12313 11.643904,12.122674 0 0 0 -11.64417,-12.12311 11.643904,12.122674 0 0 0 -11.64417,12.12311 11.643904,12.122674 0 0 0 11.64417,12.12313 z"
       id="path4239" /></g></svg>